<?xml version="1.0" standalone="no"?>
<!DOCTYPE svg PUBLIC "-//W3C//DTD SVG 20010904//EN"
 "http://www.w3.org/TR/2001/REC-SVG-20010904/DTD/svg10.dtd">
<svg version="1.0" xmlns="http://www.w3.org/2000/svg"
 width="100.000000pt" height="100.000000pt" viewBox="0 0 100.000000 100.000000"
 preserveAspectRatio="xMidYMid meet">
<metadata>
Created by potrace 1.14, written by Peter Selinger 2001-2017
</metadata>
<g transform="translate(0.000000,100.000000) scale(0.100000,-0.100000)"
fill="#000000" stroke="none">
<path d="M491 934 c-7 -8 -19 -13 -26 -10 -10 3 -13 -4 -13 -27 1 -17 -4 -33
-11 -35 -8 -3 -5 -10 9 -19 13 -9 19 -21 16 -30 -5 -12 -1 -14 20 -9 18 5 30
3 36 -6 7 -10 11 -9 19 5 5 9 17 17 26 17 9 0 13 6 10 14 -3 8 0 22 8 32 11
16 10 20 -6 32 -11 7 -16 19 -12 28 5 13 1 15 -15 10 -11 -4 -23 -2 -27 4 -8
14 -17 12 -34 -6z m59 -44 c15 -28 -4 -60 -35 -60 -31 0 -50 32 -35 60 6 12
21 20 35 20 14 0 29 -8 35 -20z"/>
<path d="M281 710 c-124 -6 -118 4 -115 -167 2 -130 5 -144 34 -138 19 4 20
-1 20 -71 l0 -74 -29 0 c-31 0 -103 -28 -133 -52 -12 -9 -15 -17 -8 -28 8 -12
14 -11 48 7 21 12 57 25 80 29 l42 7 0 -56 c0 -44 4 -58 18 -65 24 -12 471
-16 502 -4 23 8 25 15 25 68 1 57 2 59 28 62 14 2 50 -8 78 -22 50 -26 69 -26
69 -2 0 18 -72 56 -122 64 l-43 7 -3 68 c-3 66 -3 67 23 67 14 0 26 3 26 8 1
4 2 69 3 145 1 129 0 138 -19 144 -24 8 -376 10 -524 3z m386 -44 c-8 -20 7
-21 23 -1 13 16 35 21 25 6 -10 -17 12 -21 25 -6 7 8 19 15 28 15 13 0 13 -2
-1 -18 -25 -27 -22 -50 3 -27 25 23 28 0 3 -27 -9 -10 -13 -21 -9 -25 4 -4 11
-1 16 7 7 10 10 -12 10 -65 l0 -80 -77 1 -78 1 -60 101 c-33 55 -64 100 -70
98 -5 -1 -39 -49 -75 -107 -57 -91 -65 -100 -68 -76 -4 30 -22 27 -22 -4 0
-11 -7 -19 -16 -19 -11 0 -14 6 -9 20 8 26 -2 25 -24 -1 -10 -12 -23 -20 -30
-18 -9 3 -6 12 8 28 32 37 15 39 -22 3 -46 -45 -54 -40 -18 10 33 45 34 63 1
33 -25 -23 -39 -12 -17 13 20 22 22 36 4 29 -11 -4 -14 9 -15 53 0 53 2 59 21
62 12 2 118 4 236 6 192 3 213 2 208 -12z m-102 -141 l57 -95 54 0 54 0 0
-150 0 -150 -32 -1 c-18 0 -54 -2 -80 -3 -48 -2 -50 0 -50 39 0 28 2 35 11 35
5 0 13 -9 16 -20 4 -11 11 -18 16 -14 5 3 7 10 4 15 -4 5 -2 9 3 9 6 0 12 -7
16 -15 9 -24 25 -17 19 8 -5 17 -3 20 7 10 10 -9 16 -9 26 2 8 7 14 16 14 18
0 3 -29 4 -65 3 -36 -1 -65 1 -66 4 -1 3 -2 23 -3 45 -4 69 -14 92 -43 103
-34 11 -68 0 -82 -27 -6 -11 -10 -61 -8 -115 l3 -96 -38 0 c-31 0 -36 3 -31
17 7 17 6 17 -20 0 -31 -20 -44 -22 -28 -4 20 25 -2 28 -28 5 -14 -13 -19 -15
-12 -5 12 15 9 21 -11 18 -5 0 -8 8 -8 19 0 18 7 20 75 20 43 0 75 4 75 10 0
6 -30 9 -70 8 -38 -1 -72 0 -74 3 -6 7 -8 38 -7 122 l1 77 58 0 59 0 63 100
c34 55 64 100 65 100 2 0 29 -43 60 -95z m-40 -179 c15 -11 18 -28 19 -116 l1
-104 -27 1 c-78 3 -74 1 -52 18 17 13 17 14 2 15 -22 0 -24 16 -3 24 8 3 15
10 15 15 0 6 -7 8 -15 5 -8 -4 -15 -2 -15 4 0 5 7 12 15 16 8 3 15 10 15 15 0
6 -7 8 -15 5 -22 -9 -21 73 2 98 19 22 33 23 58 4z"/>
<path d="M305 372 c-3 -3 -5 -34 -5 -69 l0 -63 40 0 c45 0 46 2 54 78 4 48 3
52 -17 53 -12 1 -32 3 -44 4 -12 1 -25 0 -28 -3z m70 -24 c1 -2 0 -22 -3 -45
-4 -37 -7 -43 -28 -43 -22 0 -24 4 -24 50 0 49 1 50 26 46 15 -3 27 -6 29 -8z"/>
<path d="M605 372 c-3 -3 -5 -32 -5 -64 l0 -59 43 3 42 3 0 60 0 60 -37 1
c-21 1 -40 -1 -43 -4z m65 -59 c0 -39 -2 -43 -25 -43 -23 0 -25 4 -25 45 0 42
2 45 25 43 22 -2 25 -7 25 -45z"/>
<path d="M480 319 c0 -5 5 -7 10 -4 6 3 10 8 10 11 0 2 -4 4 -10 4 -5 0 -10
-5 -10 -11z"/>
</g>
</svg>
